<?xml version="1.0" encoding="utf-8"?>
<!-- Generator: Adobe Illustrator 19.0.0, SVG Export Plug-In . SVG Version: 6.00 Build 0)  -->
<svg version="1.1" id="Layer_1" xmlns="http://www.w3.org/2000/svg" xmlns:xlink="http://www.w3.org/1999/xlink" x="0px" y="0px"
	 viewBox="156 -156 512 512" style="enable-background:new 156 -156 512 512;" xml:space="preserve">
<g>
	<g>
		<path d="M651.4,196.7V-74c0-6.1-5-11.1-11.1-11.1H183.7c-6.1,0-11.1,5-11.1,11.1v270.7c-10.3,10.9-16.6,25.6-16.6,41.7
			c0,16.6,6.6,32.1,18.5,43.7c2.1,2,4.8,3.1,7.7,3.1h459.5c2.9,0,5.7-1.1,7.7-3.1c11.9-11.6,18.5-27.1,18.5-43.7
			C668,222.2,661.7,207.6,651.4,196.7z M540.5-62.9h88.7v57.6h-88.7V-62.9z M629.2,16.9v50.6H423.1V16.9H629.2z M629.2,89.8v57.6
			h-88.7V89.8H629.2z M305.7,89.8h212.6v57.6H305.7L305.7,89.8z M305.7-62.9h212.6v57.6H305.7L305.7-62.9z M194.8-62.9h88.7v57.6
			h-88.7V-62.9z M194.8,16.9h206.1v50.6H194.8V16.9z M194.8,89.8h88.7v57.6h-88.7V89.8z M187.1,262.9L187.1,262.9
			c-5.7-6.9-8.8-15.5-8.8-24.6c0-15.3,8.9-28.5,21.8-34.8c0.1,0,0.2-0.1,0.3-0.1c0.4-0.2,0.9-0.4,1.3-0.6c0.2-0.1,0.4-0.2,0.6-0.2
			c0.4-0.1,0.7-0.3,1.1-0.4c0.3-0.1,0.5-0.2,0.8-0.3c0.3-0.1,0.6-0.2,0.9-0.3c0.3-0.1,0.6-0.2,0.9-0.3c0.3-0.1,0.6-0.2,0.8-0.2
			c0.3-0.1,0.6-0.2,0.9-0.2c0.3-0.1,0.6-0.1,0.8-0.2c0.3-0.1,0.6-0.1,1-0.2c0.3-0.1,0.6-0.1,0.9-0.2c0.3-0.1,0.6-0.1,0.9-0.2
			c0.3,0,0.6-0.1,0.9-0.1c0.3,0,0.6-0.1,0.9-0.1c0.4,0,0.8-0.1,1.1-0.1c0.2,0,0.5,0,0.7,0c0.6,0,1.3,0,1.9,0
			c12.9,0,24.9,6.4,32.1,17.1c2.7,4,7.6,5.8,12.2,4.5c3-0.8,6.2-1.2,9.3-1c0,0,0.1,0,0.1,0c0.5,0,1,0.1,1.4,0.1c0.2,0,0.3,0,0.5,0
			c0.4,0,0.8,0.1,1.2,0.2c0.2,0,0.5,0.1,0.7,0.1c0.3,0.1,0.6,0.1,0.9,0.2c0.3,0.1,0.5,0.1,0.8,0.2c-0.1,0.3-0.2,0.5-0.3,0.8
			c0,0.1-0.1,0.2-0.1,0.3c-0.2,0.7-0.5,1.4-0.7,2c0,0.1-0.1,0.3-0.1,0.4c-0.2,0.7-0.4,1.3-0.6,2c0,0.2-0.1,0.4-0.1,0.5
			c-0.2,0.6-0.3,1.3-0.4,1.9c0,0.2-0.1,0.4-0.1,0.7c-0.1,0.6-0.2,1.2-0.3,1.8c0,0.2-0.1,0.5-0.1,0.7c-0.1,0.6-0.2,1.2-0.2,1.8
			c0,0.3-0.1,0.5-0.1,0.8c-0.1,0.6-0.1,1.2-0.1,1.8c0,0.3,0,0.5-0.1,0.7c0,0.9-0.1,1.7-0.1,2.6c0,1,0,2.1,0.1,3.1
			c0,0.3,0.1,0.7,0.1,1c0.1,0.7,0.1,1.4,0.2,2c0,0.4,0.1,0.8,0.2,1.2c0.1,0.6,0.2,1.2,0.3,1.8c0.1,0.4,0.2,0.9,0.3,1.3
			c0.1,0.6,0.2,1.1,0.4,1.7c0.1,0.4,0.2,0.9,0.3,1.3c0.1,0.5,0.3,1.1,0.5,1.6c0.1,0.4,0.3,0.9,0.4,1.3c0.2,0.5,0.4,1,0.5,1.6
			c0.2,0.4,0.3,0.9,0.5,1.3c0.2,0.5,0.4,1,0.6,1.5c0.2,0.4,0.4,0.8,0.6,1.3c0.1,0.2,0.2,0.5,0.3,0.7H187.1z M293.2,198.4
			c-0.4,0.3-0.8,0.6-1.2,0.9c-0.2,0.2-0.5,0.4-0.7,0.6c-0.4,0.4-0.9,0.8-1.3,1.1c-0.2,0.2-0.3,0.3-0.5,0.5c-0.2,0.2-0.4,0.4-0.7,0.6
			c-0.1-0.1-0.3-0.1-0.4-0.2c-0.5-0.2-1.1-0.5-1.6-0.7c-0.2-0.1-0.4-0.2-0.6-0.2c-0.6-0.2-1.3-0.5-1.9-0.7c-0.1,0-0.2-0.1-0.3-0.1
			c-0.7-0.2-1.5-0.4-2.2-0.6c-0.2-0.1-0.4-0.1-0.6-0.2c-0.6-0.1-1.1-0.3-1.7-0.4c-0.2,0-0.4-0.1-0.7-0.1c-0.7-0.1-1.4-0.3-2.1-0.4
			c-0.1,0-0.1,0-0.2,0c-0.8-0.1-1.5-0.2-2.3-0.3c-0.2,0-0.4,0-0.7-0.1c-0.6-0.1-1.2-0.1-1.7-0.1c-0.2,0-0.5,0-0.7,0
			c-0.8,0-1.6-0.1-2.3-0.1c-2,0-4,0.1-6,0.4c-11.5-13.2-28.1-20.9-45.9-20.9c-1,0-2,0-3,0.1c-0.4,0-0.8,0.1-1.2,0.1
			c-0.6,0-1.2,0.1-1.8,0.1c-0.5,0-1,0.1-1.4,0.2c-0.5,0.1-1,0.1-1.5,0.2c-0.5,0.1-1,0.2-1.5,0.3c-0.4,0.1-0.9,0.2-1.3,0.2
			c-0.5,0.1-1,0.2-1.5,0.3c-0.4,0.1-0.9,0.2-1.3,0.3c-0.5,0.1-1,0.3-1.5,0.4c-0.5,0.1-0.9,0.3-1.3,0.4c-0.5,0.1-0.9,0.3-1.4,0.4
			c-0.5,0.2-1,0.3-1.5,0.5c-0.4,0.1-0.8,0.3-1.2,0.4c-0.2,0.1-0.4,0.2-0.7,0.2v-12.1h206.1V188c-1.1,0.7-2.1,1.5-3.1,2.3
			c0,0,0,0,0,0c-1,0.8-2,1.6-2.9,2.4c0,0-0.1,0.1-0.1,0.1c-1,0.8-1.9,1.7-2.8,2.6c0,0,0,0,0,0c-0.9,0.9-1.8,1.9-2.7,2.9
			c-0.4,0-0.8-0.1-1.2-0.1c-0.8-0.1-1.5-0.1-2.3-0.2c-0.8,0-1.7-0.1-2.5-0.1h0c-5.6,0-11.1,0.9-16.4,2.7c-1.7,0.6-3.4,1.3-5.1,2.1
			c-8.5-8.4-19.6-13.6-31.6-14.8c-1.7-0.2-3.4-0.3-5.2-0.3c-0.9,0-1.7,0-2.6,0.1c-0.5,0-1,0.1-1.5,0.1c-0.3,0-0.7,0-1,0.1
			c-0.7,0.1-1.3,0.2-2,0.2c-0.2,0-0.3,0-0.5,0.1c-0.8,0.1-1.5,0.2-2.3,0.4c-0.1,0-0.1,0-0.2,0c-0.8,0.2-1.6,0.3-2.4,0.5c0,0,0,0,0,0
			c-2.4,0.6-4.8,1.4-7.1,2.3c0,0,0,0,0,0c-0.7,0.3-1.5,0.6-2.2,0.9c-0.1,0-0.1,0-0.2,0.1c-0.7,0.3-1.3,0.6-2,1
			c-0.1,0.1-0.2,0.1-0.4,0.2c-0.6,0.3-1.1,0.6-1.7,0.9c-0.2,0.1-0.4,0.2-0.6,0.3c-0.5,0.3-1,0.6-1.4,0.9c-0.3,0.2-0.5,0.3-0.8,0.5
			c-0.4,0.3-0.8,0.5-1.2,0.8c-0.3,0.2-0.7,0.5-1,0.7C293.8,198,293.5,198.2,293.2,198.4z M473.7,238.8c0,0.4,0,0.8,0,1.3
			c0,0.2,0,0.4,0,0.6c0,0.4,0,0.8-0.1,1.2c0,0.1,0,0.3,0,0.4c0,0.5-0.1,0.9-0.2,1.4c0,0.1,0,0.2,0,0.3c-0.1,0.5-0.2,1-0.3,1.6
			c0,0,0,0.1,0,0.1c-1.2,6.3-4,12.2-8.2,17.2H305.1c-0.1,0-0.1-0.1-0.2-0.1c-0.2-0.2-0.4-0.3-0.5-0.5c-0.2-0.2-0.5-0.5-0.7-0.7
			c-0.2-0.2-0.3-0.4-0.5-0.5c-0.2-0.2-0.5-0.5-0.7-0.7c-0.2-0.2-0.3-0.4-0.5-0.6c-0.2-0.3-0.4-0.5-0.6-0.8c-0.2-0.2-0.3-0.4-0.5-0.6
			c-0.2-0.3-0.4-0.5-0.6-0.8c-0.1-0.2-0.3-0.4-0.4-0.6c-0.2-0.3-0.4-0.6-0.6-0.9c-0.1-0.2-0.2-0.3-0.3-0.5c-0.3-0.5-0.6-1-0.8-1.5
			c0,0,0-0.1,0-0.1c-0.2-0.5-0.5-1-0.7-1.4c-0.1-0.2-0.2-0.4-0.2-0.5c-0.1-0.3-0.3-0.7-0.4-1c-0.1-0.2-0.2-0.4-0.2-0.6
			c-0.1-0.3-0.2-0.6-0.3-1c-0.1-0.2-0.1-0.5-0.2-0.7c-0.1-0.3-0.2-0.6-0.3-1c-0.1-0.2-0.1-0.5-0.2-0.7c-0.1-0.3-0.1-0.7-0.2-1
			c0-0.2-0.1-0.5-0.1-0.7c-0.1-0.3-0.1-0.7-0.2-1c0-0.2-0.1-0.4-0.1-0.7c0-0.4-0.1-0.8-0.1-1.2c0-0.2,0-0.4,0-0.6
			c0-0.6-0.1-1.2-0.1-1.7c0-0.7,0-1.4,0.1-2.1c0-0.2,0-0.4,0-0.5c0.1-0.7,0.1-1.3,0.2-2c0-0.1,0-0.2,0.1-0.3
			c0.1-0.6,0.2-1.1,0.3-1.7c0-0.2,0.1-0.4,0.1-0.6c0.1-0.6,0.3-1.2,0.5-1.8c0.1-0.2,0.1-0.4,0.2-0.6c0.2-0.5,0.3-0.9,0.5-1.4
			c0.1-0.2,0.2-0.4,0.2-0.6c0.2-0.6,0.5-1.1,0.8-1.7c0.1-0.2,0.2-0.4,0.3-0.6c0.3-0.5,0.5-1,0.8-1.5c0-0.1,0.1-0.2,0.1-0.3l0.1-0.1
			c0.3-0.6,0.7-1.1,1.1-1.6c0.1-0.1,0.1-0.2,0.2-0.3c0.3-0.4,0.5-0.7,0.8-1.1c0.1-0.1,0.2-0.2,0.3-0.3c0.3-0.4,0.7-0.8,1-1.2
			c0,0,0.1-0.1,0.1-0.1c0.4-0.4,0.8-0.8,1.2-1.2c0.1-0.1,0.1-0.1,0.2-0.2c0.3-0.3,0.7-0.7,1-1c0.1-0.1,0.2-0.2,0.3-0.2
			c0.4-0.3,0.7-0.6,1.1-0.9c0.1,0,0.1-0.1,0.2-0.1c3.8-2.9,8.2-4.9,12.9-5.7c0.1,0,0.1,0,0.2,0c0.5-0.1,1-0.2,1.4-0.2
			c0.1,0,0.3,0,0.4,0c0.4-0.1,0.9-0.1,1.3-0.1c0.1,0,0.3,0,0.4,0c0.6,0,1.1-0.1,1.7-0.1c2.5,0,5,0.3,7.4,0.9
			c7.2,1.8,13.5,6.2,17.7,12.5c1.7,2.5,4.4,4.3,7.4,4.8c0.4,0.1,0.7,0.1,1.1,0.1c0.1,0,0.2,0,0.3,0c0.2,0,0.3,0,0.5,0
			c0.1,0,0.2,0,0.3,0c0.1,0,0.2,0,0.3,0c0.3,0,0.5,0,0.8-0.1c0.1,0,0.2,0,0.3,0c0.7-0.1,1.4-0.3,2-0.5c0.1,0,0.2-0.1,0.3-0.1
			c0.2-0.1,0.5-0.2,0.7-0.3c0.1,0,0.2-0.1,0.3-0.2c0.2-0.1,0.4-0.2,0.6-0.3c0.1-0.1,0.2-0.1,0.3-0.2c0.3-0.2,0.6-0.4,0.8-0.6
			c0,0,0,0,0,0c0.6-0.4,1.1-0.8,1.7-1.2c3.7-2.4,7.8-3.9,12.2-4.4c1.1-0.1,2.1-0.2,3.2-0.2c2.6,0,5.1,0.4,7.6,1.1
			c0.6,0.2,1.2,0.3,1.8,0.3c1.6,0.2,3.1,0,4.6-0.5c2.3-0.7,4.4-2.2,5.8-4.3c3.6-5.3,8.5-9.7,14.1-12.7c0.7-0.4,1.4-0.7,2.1-1
			c0.1,0,0.1-0.1,0.2-0.1c0.6-0.3,1.2-0.5,1.9-0.8c0.5-0.2,1.1-0.4,1.6-0.6c0.2-0.1,0.3-0.1,0.5-0.2c3.7-1.2,7.6-1.8,11.7-1.8
			c0.7,0,1.4,0,2.1,0.1c0.2,0,0.4,0,0.6,0c0.5,0,1,0.1,1.5,0.1c0.2,0,0.4,0.1,0.7,0.1c0.5,0.1,0.9,0.1,1.4,0.2
			c0.2,0,0.5,0.1,0.7,0.1c0.4,0.1,0.9,0.2,1.3,0.3c0.2,0.1,0.5,0.1,0.7,0.2c0.4,0.1,0.8,0.2,1.2,0.3c0.3,0.1,0.5,0.1,0.8,0.2
			c0.4,0.1,0.7,0.2,1.1,0.3c0.3,0.1,0.6,0.2,0.9,0.3c0.3,0.1,0.7,0.2,1,0.4c0.3,0.1,0.6,0.2,0.9,0.4c0.3,0.1,0.5,0.2,0.8,0.4
			c0.4,0.2,0.7,0.3,1,0.5c0.2,0.1,0.4,0.2,0.5,0.3c2.6,1.3,5.1,2.9,7.3,4.7c0,0,0.1,0.1,0.1,0.1c0.4,0.3,0.8,0.7,1.2,1.1
			c0.1,0.1,0.2,0.1,0.2,0.2c0.4,0.4,0.8,0.7,1.1,1.1c0.1,0.1,0.2,0.2,0.2,0.2c0.4,0.4,0.7,0.8,1.1,1.1c0.1,0.1,0.1,0.1,0.2,0.2
			c1.2,1.3,2.3,2.7,3.3,4.2c0,0.1,0.1,0.1,0.1,0.2c0.3,0.4,0.6,0.9,0.8,1.3c0.1,0.1,0.2,0.3,0.2,0.4c0.2,0.4,0.4,0.7,0.6,1.1
			c0.1,0.2,0.2,0.4,0.3,0.6c0.2,0.3,0.3,0.6,0.5,0.9c0.1,0.3,0.3,0.5,0.4,0.8c0.1,0.2,0.2,0.4,0.3,0.7c0.2,0.3,0.3,0.7,0.4,1
			c0,0.1,0,0.1,0.1,0.2c0.6,1.5,1.1,3,1.6,4.6c0,0,0,0,0,0c0.1,0.4,0.2,0.9,0.3,1.3c0,0.1,0.1,0.3,0.1,0.4c0.1,0.4,0.2,0.8,0.2,1.2
			c0,0.2,0.1,0.4,0.1,0.6c0.1,0.3,0.1,0.7,0.2,1.1c0,0.3,0.1,0.6,0.1,0.8c0,0.3,0.1,0.6,0.1,0.9c0,0.4,0.1,0.8,0.1,1.2
			c0,0.2,0,0.4,0,0.6c0,0.6,0,1.2,0,1.9C473.7,238.5,473.7,238.7,473.7,238.8z M488.1,188.5c-0.7,0.1-1.3,0.2-1.9,0.4
			c-0.2,0-0.5,0.1-0.7,0.1c-0.8,0.2-1.6,0.4-2.4,0.6c-0.1,0-0.1,0-0.2,0.1c-0.7,0.2-1.5,0.4-2.2,0.7c-0.2,0.1-0.5,0.2-0.7,0.2
			c-0.6,0.2-1.2,0.4-1.9,0.7c-0.2,0.1-0.4,0.1-0.5,0.2c-0.8,0.3-1.5,0.6-2.3,1c-0.1,0-0.1,0.1-0.2,0.1c-5.6-4.9-12-8.7-19-11.3
			c-0.2-0.1-0.4-0.1-0.6-0.2c-0.7-0.2-1.4-0.5-2-0.7c-0.3-0.1-0.7-0.2-1-0.3c-0.6-0.2-1.1-0.3-1.7-0.5c-0.4-0.1-0.8-0.2-1.2-0.3
			c-0.5-0.1-1-0.3-1.6-0.4c-0.4-0.1-0.9-0.2-1.3-0.3c-0.5-0.1-1-0.2-1.6-0.3c-0.4-0.1-0.9-0.1-1.3-0.2c-0.5-0.1-1.1-0.1-1.6-0.2
			c-0.4,0-0.8-0.1-1.3-0.1c-0.6-0.1-1.2-0.1-1.9-0.1c-0.4,0-0.7-0.1-1.1-0.1c-1,0-2-0.1-3-0.1c-1,0-2.1,0-3.1,0.1
			c-0.5,0-1,0.1-1.6,0.1c-0.5,0-1,0.1-1.5,0.1c-0.7,0.1-1.3,0.2-2,0.3c-0.3,0-0.7,0.1-1,0.1c-0.7,0.1-1.5,0.3-2.2,0.4
			c-0.2,0-0.4,0.1-0.5,0.1v-9.1h206.1v12.1c-0.2-0.1-0.4-0.2-0.7-0.2c-0.4-0.2-0.8-0.3-1.2-0.4c-0.5-0.2-1-0.3-1.5-0.5
			c-0.5-0.1-0.9-0.3-1.4-0.4c-0.4-0.1-0.9-0.3-1.4-0.4c-0.5-0.1-1-0.3-1.5-0.4c-0.4-0.1-0.9-0.2-1.3-0.3c-0.5-0.1-1-0.2-1.5-0.3
			c-0.4-0.1-0.9-0.2-1.3-0.2c-0.5-0.1-1-0.2-1.5-0.3c-0.5-0.1-1-0.1-1.5-0.2c-0.5-0.1-1-0.1-1.4-0.2c-0.6-0.1-1.2-0.1-1.8-0.1
			c-0.4,0-0.8-0.1-1.2-0.1c-1,0-2-0.1-3-0.1c-17.7,0-34.4,7.7-45.9,20.9c-2-0.2-4-0.4-6-0.4c-7.5,0-14.8,1.6-21.5,4.8
			c-9.7-9.6-22.9-15.1-36.8-15.1c-0.9,0-1.7,0-2.6,0.1c-0.2,0-0.5,0-0.7,0c-0.7,0-1.4,0.1-2,0.2c-0.2,0-0.4,0-0.6,0.1
			c-0.8,0.1-1.7,0.2-2.5,0.3C488.5,188.4,488.3,188.4,488.1,188.5z M636.9,262.9H490.8c2.5-5.7,4.1-11.7,4.8-18c0-0.1,0-0.2,0-0.3
			c0.1-0.8,0.1-1.7,0.2-2.5c0-0.2,0-0.5,0.1-0.7c0-0.8,0-1.5,0.1-2.3c0-0.3,0-0.6,0-0.9c0-0.1,0-0.2,0-0.3c0-1,0-2.1-0.1-3.1
			c0-0.3,0-0.6-0.1-0.9c-0.1-0.8-0.1-1.7-0.2-2.5c0-0.3-0.1-0.6-0.1-0.9c-0.1-0.9-0.2-1.8-0.4-2.6c0-0.2-0.1-0.5-0.1-0.7
			c-0.2-1-0.4-1.9-0.6-2.8c0-0.1-0.1-0.3-0.1-0.4c-0.8-3.4-1.9-6.7-3.3-9.8c-0.1-0.2-0.2-0.4-0.2-0.5c-0.4-0.8-0.7-1.6-1.1-2.4
			c-0.1-0.1-0.1-0.3-0.2-0.4c0.1,0,0.2-0.1,0.4-0.1c0.3-0.1,0.5-0.1,0.8-0.2c0.4-0.1,0.9-0.2,1.3-0.3c0.3,0,0.5-0.1,0.8-0.1
			c0.5-0.1,1-0.1,1.5-0.2c0.2,0,0.5,0,0.7-0.1c0.7-0.1,1.4-0.1,2.2-0.1c10.1,0,19.5,5,25.1,13.4c1.7,2.5,4.4,4.3,7.4,4.8
			c0.3,0.1,0.7,0.1,1,0.1c0.1,0,0.2,0,0.4,0c0.1,0,0.3,0,0.4,0c0.1,0,0.2,0,0.2,0c0.1,0,0.3,0,0.4,0c0.2,0,0.4,0,0.6-0.1
			c0.1,0,0.3,0,0.4,0c0.3,0,0.6-0.1,0.8-0.2c0.1,0,0.2,0,0.2-0.1c0.3-0.1,0.6-0.2,0.9-0.3c0.1,0,0.2-0.1,0.3-0.1
			c0.2-0.1,0.4-0.2,0.6-0.3c0.1-0.1,0.2-0.1,0.3-0.2c0.2-0.1,0.4-0.2,0.6-0.3c0.1-0.1,0.2-0.1,0.3-0.2c0.3-0.2,0.6-0.4,0.9-0.6
			c5-3.8,10.9-5.8,17.2-5.8c2.6,0,5.1,0.4,7.6,1.1c4.6,1.3,9.5-0.5,12.2-4.5c7.2-10.7,19.2-17.1,32.1-17.1c0.6,0,1.3,0,1.9,0
			c0.2,0,0.5,0,0.7,0c0.4,0,0.8,0,1.1,0.1c0.3,0,0.6,0.1,0.9,0.1c0.3,0,0.6,0.1,0.9,0.1c0.3,0,0.6,0.1,1,0.2c0.3,0,0.6,0.1,0.9,0.2
			c0.3,0.1,0.6,0.1,1,0.2c0.3,0.1,0.6,0.1,0.8,0.2c0.3,0.1,0.6,0.2,0.9,0.2c0.3,0.1,0.6,0.2,0.8,0.2c0.3,0.1,0.6,0.2,0.9,0.3
			c0.3,0.1,0.6,0.2,0.9,0.3c0.3,0.1,0.5,0.2,0.8,0.3c0.4,0.1,0.7,0.3,1.1,0.4c0.2,0.1,0.4,0.2,0.6,0.2c0.5,0.2,0.9,0.4,1.3,0.6
			c0.1,0,0.2,0.1,0.3,0.1c12.9,6.3,21.8,19.5,21.8,34.8C645.8,247.4,642.7,256,636.9,262.9z"/>
	</g>
</g>
</svg>
