<?xml version="1.0" encoding="utf-8"?>
<!-- Generator: Adobe Illustrator 19.0.0, SVG Export Plug-In . SVG Version: 6.00 Build 0)  -->
<svg version="1.1" id="Layer_1" xmlns="http://www.w3.org/2000/svg" xmlns:xlink="http://www.w3.org/1999/xlink" x="0px" y="0px"
	 viewBox="156 -156 443.3 512" style="enable-background:new 156 -156 443.3 512;" xml:space="preserve">
<g>
	<g>
		<g>
			<path d="M480.3,176.8c0-4.7-3.8-8.5-8.5-8.5s-8.5,3.8-8.5,8.5v17.1c0,4.7,3.8,8.5,8.5,8.5s8.5-3.8,8.5-8.5V176.8z"/>
			<path d="M471.7,270.7c-4.7,0-8.5,3.8-8.5,8.5v34.1c0,4.7,3.8,8.5,8.5,8.5s8.5-3.8,8.5-8.5v-34.1
				C480.3,274.5,476.4,270.7,471.7,270.7z"/>
			<path d="M514.4,74.4c0-4.7-3.8-8.5-8.5-8.5s-8.5,3.8-8.5,8.5v17.1c0,4.7,3.8,8.5,8.5,8.5s8.5-3.8,8.5-8.5V74.4z"/>
			<path d="M480.3,125.6c0-4.7-3.8-8.5-8.5-8.5s-8.5,3.8-8.5,8.5v17.1c0,4.7,3.8,8.5,8.5,8.5s8.5-3.8,8.5-8.5V125.6z"/>
			<path d="M480.3,228c0-4.7-3.8-8.5-8.5-8.5s-8.5,3.8-8.5,8.5v17.1c0,4.7,3.8,8.5,8.5,8.5s8.5-3.8,8.5-8.5L480.3,228L480.3,228z"/>
			<path d="M514.4,125.6c0-4.7-3.8-8.5-8.5-8.5s-8.5,3.8-8.5,8.5v17.1c0,4.7,3.8,8.5,8.5,8.5s8.5-3.8,8.5-8.5V125.6z"/>
			<path d="M446.1,74.4c0-4.7-3.8-8.5-8.5-8.5s-8.5,3.8-8.5,8.5v17.1c0,4.7,3.8,8.5,8.5,8.5s8.5-3.8,8.5-8.5V74.4z"/>
			<path d="M480.3,74.4c0-4.7-3.8-8.5-8.5-8.5s-8.5,3.8-8.5,8.5v17.1c0,4.7,3.8,8.5,8.5,8.5s8.5-3.8,8.5-8.5V74.4z"/>
			<path d="M446.1,125.6c0-4.7-3.8-8.5-8.5-8.5s-8.5,3.8-8.5,8.5v17.1c0,4.7,3.8,8.5,8.5,8.5s8.5-3.8,8.5-8.5V125.6z"/>
			<path d="M437.6,168.3c-4.7,0-8.5,3.8-8.5,8.5v17.1c0,4.7,3.8,8.5,8.5,8.5s8.5-3.8,8.5-8.5v-17.1
				C446.1,172.1,442.3,168.3,437.6,168.3z"/>
			<path d="M514.4,228c0-4.7-3.8-8.5-8.5-8.5s-8.5,3.8-8.5,8.5v17.1c0,4.7,3.8,8.5,8.5,8.5s8.5-3.8,8.5-8.5V228z"/>
			<path d="M505.9,270.7c-4.7,0-8.5,3.8-8.5,8.5v34.1c0,4.7,3.8,8.5,8.5,8.5s8.5-3.8,8.5-8.5v-34.1
				C514.4,274.5,510.6,270.7,505.9,270.7z"/>
			<path d="M514.4,176.8c0-4.7-3.8-8.5-8.5-8.5s-8.5,3.8-8.5,8.5v17.1c0,4.7,3.8,8.5,8.5,8.5s8.5-3.8,8.5-8.5V176.8z"/>
			<path d="M540,207.9c4.7,0,8.5-3.8,8.5-8.5V40.3c0-3.9-2.7-7.3-6.5-8.3L405.5-2.1c-2.5-0.6-5.3-0.1-7.3,1.6
				c-2.1,1.6-3.3,4.1-3.3,6.7v187.7c0,4.7,3.8,8.5,8.5,8.5c4.7,0,8.5-3.8,8.5-8.5V17.1l119.5,29.9v152.4
				C531.5,204,535.3,207.9,540,207.9z"/>
			<path d="M343.7,23.2c0-4.7-3.8-8.5-8.5-8.5c-4.7,0-8.5,3.8-8.5,8.5v17.1c0,4.7,3.8,8.5,8.5,8.5c4.7,0,8.5-3.8,8.5-8.5V23.2z"/>
			<path d="M343.7-28c0-4.7-3.8-8.5-8.5-8.5c-4.7,0-8.5,3.8-8.5,8.5v17.1c0,4.7,3.8,8.5,8.5,8.5c4.7,0,8.5-3.8,8.5-8.5V-28z"/>
			<path d="M275.5,228c0-4.7-3.8-8.5-8.5-8.5c-4.7,0-8.5,3.8-8.5,8.5v17.1c0,4.7,3.8,8.5,8.5,8.5c4.7,0,8.5-3.8,8.5-8.5L275.5,228
				L275.5,228z"/>
			<path d="M198.7,151.2c4.7,0,8.5-3.8,8.5-8.5V100h85.3v213.3c0,4.7,3.8,8.5,8.5,8.5s8.5-3.8,8.5-8.5V91.5c0-4.7-3.8-8.5-8.5-8.5
				H198.7c-4.7,0-8.5,3.8-8.5,8.5v51.2C190.1,147.4,194,151.2,198.7,151.2z"/>
			<path d="M292.5,23.2v17.1c0,4.7,3.8,8.5,8.5,8.5s8.5-3.8,8.5-8.5V23.2c0-4.7-3.8-8.5-8.5-8.5C296.4,14.7,292.5,18.5,292.5,23.2z"
				/>
			<path d="M343.7-79.2c0-4.7-3.8-8.5-8.5-8.5c-4.7,0-8.5,3.8-8.5,8.5v17.1c0,4.7,3.8,8.5,8.5,8.5c4.7,0,8.5-3.8,8.5-8.5V-79.2z"/>
			<path d="M266.9,270.7c-4.7,0-8.5,3.8-8.5,8.5v34.1c0,4.7,3.8,8.5,8.5,8.5c4.7,0,8.5-3.8,8.5-8.5v-34.1
				C275.5,274.5,271.6,270.7,266.9,270.7z"/>
			<path d="M589.5,338.9h-17.1v-52.4c14.7-3.8,25.6-17.1,25.6-32.9c0-18.8-15.3-34.1-34.1-34.1c-18.8,0-34.1,15.3-34.1,34.1
				c0,15.9,10.9,29.1,25.6,32.9v52.4H412v-35c19.4-4,34.1-21.2,34.1-41.8c0-23.5-19.1-42.7-42.7-42.7c-23.5,0-42.7,19.1-42.7,42.7
				c0,20.6,14.7,37.8,34.1,41.8v35H207.2v-86.2c19.4-4,34.1-21.2,34.1-41.8c0-23.5-19.1-42.7-42.7-42.7c-23.5,0-42.7,19.1-42.7,42.7
				c0,20.6,14.7,37.8,34.1,41.8v86.2h-25.6c-4.7,0-8.5,3.8-8.5,8.5s3.8,8.5,8.5,8.5h424.9c4.7,0,8.5-3.8,8.5-8.5
				S594.2,338.9,589.5,338.9z M173.1,210.9c0-14.1,11.5-25.6,25.6-25.6c14.1,0,25.6,11.5,25.6,25.6s-11.5,25.6-25.6,25.6
				C184.6,236.5,173.1,225,173.1,210.9z M377.9,262.1c0-14.1,11.5-25.6,25.6-25.6s25.6,11.5,25.6,25.6s-11.5,25.6-25.6,25.6
				S377.9,276.2,377.9,262.1z M546.8,253.6c0-9.4,7.7-17.1,17.1-17.1c9.4,0,17.1,7.7,17.1,17.1c0,9.4-7.7,17.1-17.1,17.1
				C554.4,270.7,546.8,263,546.8,253.6z"/>
			<path d="M224.3,279.2v34.1c0,4.7,3.8,8.5,8.5,8.5c4.7,0,8.5-3.8,8.5-8.5v-34.1c0-4.7-3.8-8.5-8.5-8.5
				C228.1,270.7,224.3,274.5,224.3,279.2z"/>
			<path d="M275.5,125.6c0-4.7-3.8-8.5-8.5-8.5c-4.7,0-8.5,3.8-8.5,8.5v17.1c0,4.7,3.8,8.5,8.5,8.5c4.7,0,8.5-3.8,8.5-8.5V125.6z"/>
			<path d="M275.5,176.8c0-4.7-3.8-8.5-8.5-8.5c-4.7,0-8.5,3.8-8.5,8.5v17.1c0,4.7,3.8,8.5,8.5,8.5c4.7,0,8.5-3.8,8.5-8.5V176.8z"/>
			<path d="M224.3,125.6v17.1c0,4.7,3.8,8.5,8.5,8.5c4.7,0,8.5-3.8,8.5-8.5v-17.1c0-4.7-3.8-8.5-8.5-8.5
				C228.1,117.1,224.3,120.9,224.3,125.6z"/>
			<path d="M343.7,176.8c0-4.7-3.8-8.5-8.5-8.5c-4.7,0-8.5,3.8-8.5,8.5v17.1c0,4.7,3.8,8.5,8.5,8.5c4.7,0,8.5-3.8,8.5-8.5V176.8z"/>
			<path d="M377.9,74.4c0-4.7-3.8-8.5-8.5-8.5c-4.7,0-8.5,3.8-8.5,8.5v17.1c0,4.7,3.8,8.5,8.5,8.5c4.7,0,8.5-3.8,8.5-8.5V74.4z"/>
			<path d="M377.9,23.2c0-4.7-3.8-8.5-8.5-8.5c-4.7,0-8.5,3.8-8.5,8.5v17.1c0,4.7,3.8,8.5,8.5,8.5c4.7,0,8.5-3.8,8.5-8.5V23.2z"/>
			<path d="M377.9,125.6c0-4.7-3.8-8.5-8.5-8.5c-4.7,0-8.5,3.8-8.5,8.5v17.1c0,4.7,3.8,8.5,8.5,8.5c4.7,0,8.5-3.8,8.5-8.5V125.6z"/>
			<path d="M369.3,168.3c-4.7,0-8.5,3.8-8.5,8.5v17.1c0,4.7,3.8,8.5,8.5,8.5c4.7,0,8.5-3.8,8.5-8.5v-17.1
				C377.9,172.1,374,168.3,369.3,168.3z"/>
			<path d="M377.9-28c0-4.7-3.8-8.5-8.5-8.5c-4.7,0-8.5,3.8-8.5,8.5v17.1c0,4.7,3.8,8.5,8.5,8.5c4.7,0,8.5-3.8,8.5-8.5V-28z"/>
			<path d="M343.7,228c0-4.7-3.8-8.5-8.5-8.5c-4.7,0-8.5,3.8-8.5,8.5v17.1c0,4.7,3.8,8.5,8.5,8.5c4.7,0,8.5-3.8,8.5-8.5V228z"/>
			<path d="M266.9,65.9c4.7,0,8.5-3.8,8.5-8.5v-63l29.4-14.7c2.9-1.5,4.7-4.4,4.7-7.6v-71.5l42.7-21.3l42.7,21.3V-28
				c0,4.7,3.8,8.5,8.5,8.5c4.7,0,8.5-3.8,8.5-8.5v-76.8c0-3.2-1.8-6.2-4.7-7.6l-46.5-23.2v-11.8c0-4.7-3.8-8.5-8.5-8.5
				s-8.5,3.8-8.5,8.5v11.8l-46.5,23.2c-2.9,1.5-4.7,4.4-4.7,7.6v71.5l-29.4,14.7c-2.9,1.5-4.7,4.4-4.7,7.6v68.3
				C258.4,62,262.2,65.9,266.9,65.9z"/>
			<path d="M343.7,125.6c0-4.7-3.8-8.5-8.5-8.5c-4.7,0-8.5,3.8-8.5,8.5v17.1c0,4.7,3.8,8.5,8.5,8.5c4.7,0,8.5-3.8,8.5-8.5V125.6z"/>
			<path d="M335.2,270.7c-4.7,0-8.5,3.8-8.5,8.5v34.1c0,4.7,3.8,8.5,8.5,8.5c4.7,0,8.5-3.8,8.5-8.5v-34.1
				C343.7,274.5,339.9,270.7,335.2,270.7z"/>
			<path d="M377.9-79.2c0-4.7-3.8-8.5-8.5-8.5c-4.7,0-8.5,3.8-8.5,8.5v17.1c0,4.7,3.8,8.5,8.5,8.5c4.7,0,8.5-3.8,8.5-8.5V-79.2z"/>
			<path d="M343.7,74.4c0-4.7-3.8-8.5-8.5-8.5c-4.7,0-8.5,3.8-8.5,8.5v17.1c0,4.7,3.8,8.5,8.5,8.5c4.7,0,8.5-3.8,8.5-8.5V74.4z"/>
		</g>
	</g>
</g>
</svg>
