<?xml version="1.0" encoding="utf-8"?>
<!-- Generator: Adobe Illustrator 19.0.0, SVG Export Plug-In . SVG Version: 6.00 Build 0)  -->
<svg version="1.1" id="Layer_1" xmlns="http://www.w3.org/2000/svg" xmlns:xlink="http://www.w3.org/1999/xlink" x="0px" y="0px"
	 viewBox="156 -156 512 512" style="enable-background:new 156 -156 512 512;" xml:space="preserve">
<g>
	<g>
		<g>
			<path d="M664.9,28.1l-181-181c-4.2-4.2-10.9-4.2-15.1,0L333-17.1l-45.2,45.2c0,0,0,0,0,0c0,0,0,0,0,0l-15.1,15.1
				c-2.7,2.7-3.8,6.7-2.7,10.4c1.9,6.6,3.7,13.1,5.6,19.7c3.7,12.9,7.5,26.2,11,39.3c7.2,26.9,3.4,37.2-19.3,52.4
				c-7.1,4.7-13.7,9.1-20.1,13.3c-20.9,13.7-38,25-51.5,37.5c-0.3,0.3-0.6,0.5-0.9,0.8c-0.1,0.1-0.2,0.3-0.4,0.4
				c-6.9,6.6-12.8,13.5-17.7,21.3C162,261.8,156,292.8,156,345.3c0,5.9,4.8,10.7,10.7,10.7c52.5,0,83.5-6,106.9-20.8
				c7.8-4.9,14.8-10.8,21.3-17.7c0.1-0.1,0.3-0.3,0.4-0.4c0.3-0.3,0.6-0.6,0.8-1c12.6-13.5,23.8-30.6,37.5-51.5
				c4.2-6.4,8.5-13,13.3-20.1c12.6-18.8,21.3-22.5,32.1-22.5c5.4,0,12,1.1,20.3,3.3c13.1,3.5,26.4,7.3,39.3,11
				c6.6,1.9,13.1,3.8,19.7,5.6c3.7,1.1,7.7,0,10.4-2.7l60.3-60.3c0,0,0,0,0,0L664.9,43.2c2-2,3.1-4.7,3.1-7.5
				C668,32.9,666.9,30.1,664.9,28.1z M262.2,317.2c-18.2,11.5-43.2,16.7-84.8,17.4c0.7-41.6,5.9-66.6,17.4-84.8
				c2.3-3.6,4.8-7,7.7-10.3l13.7,13.7c-5.7,11.9-3.6,26.6,6.2,36.4c6,6,14.1,9.4,22.6,9.4c4.9,0,9.5-1.1,13.8-3.1l13.7,13.7
				C269.3,312.3,265.8,314.9,262.2,317.2z M237.5,259.4c2-2,4.7-3.1,7.5-3.1c2.9,0,5.5,1.1,7.5,3.1c2,2,3.1,4.7,3.1,7.5
				c0,2.8-1.1,5.5-3.1,7.5c0,0,0,0,0,0c0,0,0,0,0,0c-2,2-4.7,3.1-7.5,3.1c-2.8,0-5.5-1.1-7.5-3.1
				C233.4,270.3,233.4,263.5,237.5,259.4z M258.9,238c-4.3-2-8.9-3.1-13.8-3.1c-4.9,0-9.5,1.1-13.8,3.1L218,224.8
				c10.9-8.9,24.5-17.8,41-28.6c6.4-4.2,13.1-8.6,20.2-13.4c30.2-20.2,37.5-40,28-75.6c-3.6-13.3-7.4-26.7-11.1-39.7
				c-1.3-4.5-2.6-9.1-3.9-13.6l3.1-3.1l165.9,165.9l-3.1,3.1c-4.5-1.3-9.1-2.6-13.6-3.9c-13-3.7-26.4-7.6-39.7-11.1
				c-10.2-2.7-18.4-4-25.8-4c-20.2,0-34.6,9.3-49.8,32c-4.8,7.2-9.2,13.8-13.4,20.2c-10.8,16.5-19.7,30.1-28.6,41L274,280.7
				c2-4.3,3.1-8.9,3.1-13.8s-1.1-9.5-3.1-13.8C270.4,247.2,265.3,242.2,258.9,238z M476.3,201.6L310.4,35.7l30.2-30.2l165.9,165.9
				L476.3,201.6z M521.6,156.4L355.6-9.6L379-33c20.6,13.6,48.7,11.4,66.9-6.5c0.1-0.1,15.3-15.3,15.3-15.3c4.2-4.2,10.9-4.2,15.1,0
				c2,2,3.1,4.7,3.1,7.5s-1.1,5.5-3.1,7.5L446.1-9.6c-12.5,12.5-12.5,32.8,0,45.3c6,6,14.1,9.4,22.6,9.4c8.5,0,16.6-3.3,22.6-9.4
				l15.1-15.1c2-2,4.7-3.1,7.5-3.1c2.8,0,5.5,1.1,7.5,3.1c4.2,4.2,4.2,10.9,0,15.1c-20.8,20.8-20.8,54.6,0,75.4
				c8.5,8.5,19.1,13.5,30.2,15.1L521.6,156.4z M582,96C581.9,96,581.9,96,582,96c-12.5,12.5-32.8,12.5-45.3,0.1
				c-6-6-9.4-14.1-9.4-22.6s3.3-16.6,9.4-22.6c12.5-12.5,12.5-32.8,0-45.3c-6-6-14.1-9.4-22.6-9.4c-8.5,0-16.6,3.3-22.6,9.4
				l-15.1,15.1c-2,2-4.7,3.1-7.5,3.1c-2.9,0-5.5-1.1-7.5-3.1c-4.2-4.2-4.2-10.9,0-15.1l30.2-30.2c6-6,9.4-14.1,9.4-22.6
				s-3.3-16.6-9.4-22.6c-12.5-12.5-32.8-12.5-45.3,0c-0.3,0.3-15,15-15.2,15.2c-9.8,9.7-24.4,11.7-36.2,6.1l81.7-81.7L612.1,5.5
				l-33.8,33.8c-4.2,4.2-4.2,10.9,0,15.1c2.1,2.1,4.8,3.1,7.5,3.1c2.7,0,5.5-1,7.5-3.1l33.8-33.8l15.1,15.1L582,96z"/>
		</g>
	</g>
</g>
</svg>
