<?xml version="1.0" encoding="iso-8859-1"?>
<!-- Generator: Adobe Illustrator 19.0.0, SVG Export Plug-In . SVG Version: 6.00 Build 0)  -->
<svg version="1.1" id="Layer_1" xmlns="http://www.w3.org/2000/svg" xmlns:xlink="http://www.w3.org/1999/xlink" x="0px" y="0px"
	 viewBox="0 0 512 512" style="enable-background:new 0 0 512 512;" xml:space="preserve">
<g>
	<g>
		<path d="M423.421,129.834l-162.133-128c-3.1-2.446-7.475-2.446-10.575,0l-162.133,128c-2.852,2.252-3.967,6.063-2.773,9.496
			c1.192,3.433,4.427,5.735,8.06,5.735h42.667v93.867c0,1.921,0.858,37.852,58.891,53.04L136.85,501.165
			c-1.271,4.538,1.377,9.246,5.917,10.517c0.769,0.217,1.544,0.319,2.304,0.319c3.731,0,7.158-2.467,8.212-6.235l12.878-45.994
			c0.33-0.177,0.656-0.362,0.968-0.587L256,394.999l88.871,64.184c0.311,0.225,0.638,0.41,0.968,0.587l12.878,45.994
			c1.054,3.771,4.481,6.235,8.212,6.235c0.76,0,1.535-0.102,2.304-0.319c4.539-1.271,7.187-5.979,5.917-10.517l-58.574-209.193
			c58.032-15.188,58.891-51.119,58.891-53.04v-93.867h42.667c3.633,0,6.869-2.302,8.06-5.735
			C427.387,135.897,426.273,132.086,423.421,129.834z M173.512,433.52l22.846-81.595l45.066,32.548L173.512,433.52z
			 M201.263,334.413L201.263,334.413l10.902-38.939c12.453,2.015,26.945,3.191,43.835,3.191c16.89,0,31.383-1.175,43.835-3.191
			l10.902,38.938l0,0L256,373.945L201.263,334.413z M338.488,433.52l-67.912-49.048l45.066-32.548L338.488,433.52z M256,281.598
			c-99.654,0-102.385-42.389-102.4-42.667v-93.866h204.8l0.002,93.714C358.385,239.209,355.654,281.598,256,281.598z
			 M366.933,127.999H145.067h-26.619L256,19.405l137.552,108.593H366.933z"/>
	</g>
</g>
<g>
</g>
<g>
</g>
<g>
</g>
<g>
</g>
<g>
</g>
<g>
</g>
<g>
</g>
<g>
</g>
<g>
</g>
<g>
</g>
<g>
</g>
<g>
</g>
<g>
</g>
<g>
</g>
<g>
</g>
</svg>
