<?xml version="1.0" encoding="utf-8"?>
<!-- Generator: Adobe Illustrator 19.0.0, SVG Export Plug-In . SVG Version: 6.00 Build 0)  -->
<svg version="1.1" id="Layer_1" xmlns="http://www.w3.org/2000/svg" xmlns:xlink="http://www.w3.org/1999/xlink" x="0px" y="0px"
	 viewBox="156 -156 512 512" style="enable-background:new 156 -156 512 512;" xml:space="preserve">
<style type="text/css">
	.st0{fill:#2D527C;}
</style>
<g>
	<path class="st0" d="M354.2,162c-19.1,0-34.5,15.4-34.5,34.5c0,19.1,15.4,34.5,34.5,34.5c19.1,0,34.5-15.4,34.5-34.5
		C388.7,177.4,373.2,162,354.2,162z M354.2,216.3c-11,0-19.8-8.9-19.8-19.8s8.9-19.8,19.8-19.8c11,0,19.8,8.9,19.8,19.8
		S365.1,216.3,354.2,216.3z"/>
	<path class="st0" d="M488.7,162c-19.1,0-34.5,15.4-34.5,34.5c0,19.1,15.4,34.5,34.5,34.5c19.1,0,34.5-15.4,34.5-34.5
		C523.2,177.4,507.7,162,488.7,162z M488.7,216.3c-11,0-19.8-8.9-19.8-19.8s8.9-19.8,19.8-19.8c11,0,19.8,8.9,19.8,19.8
		S499.6,216.3,488.7,216.3z"/>
	<path class="st0" d="M617,327.3h-54.5L520.3,276H566c7.9,0,14.4-6.4,14.4-14.4l0,0l0,0V130.8c0-7.9-6.4-14.4-14.4-14.4h-77.4V20.6
		c0-7.9-2.4-14.4-10.4-14.4s-10.4,6.4-10.4,14.4v95.8h-95.6V-51.3h136.2c23.8,0,43.1,19.4,43.1,43.1v142.8c0,7.9,6.4,14.4,14.4,14.4
		s14.4-6.4,14.4-14.4V-8.1c0-39.6-32.2-71.9-71.9-71.9H487l31.4-54.5c4-6.9,1.6-15.7-5.3-19.6c-6.9-4-15.7-1.6-19.6,5.3L453.8-80
		h-67.6l-39.7-68.8c-4-6.9-12.8-9.2-19.6-5.3c-6.9,4-9.2,12.8-5.3,19.6L353-80h-21.5c-39.6,0-71.9,32.2-71.9,71.9v138.9v130.8l0,0
		c0,7.9,6.4,14.4,14.4,14.4h45.7L294,307.2l0,0l-16.5,20H223c-7.9,0-14.4,6.4-14.4,14.4S215.1,356,223,356h61.3
		c4.3,0,8.4-1.9,11.1-5.2l16.5-24.1h136.9c7.9,0,14.4-2.4,14.4-10.4s-6.4-10.4-14.4-10.4H335.6l17.4-25.1c1.2-1.5,2.1-3.1,2.6-4.9
		h128.9c0.5,1.7,1.4,3.4,2.6,4.9l57.5,69.9c2.7,3.3,6.8,5.2,11.1,5.2H617c7.9,0,14.4-6.4,14.4-14.4
		C631.3,333.7,624.9,327.3,617,327.3z M551.6,247.3H288.4V145.2h263.2V247.3z M331.6-51.3h19.9v167.7h-63V-8.1
		C288.4-31.9,307.8-51.3,331.6-51.3z"/>
</g>
</svg>
