<?xml version="1.0" encoding="utf-8"?>
<!-- Generator: Adobe Illustrator 19.0.0, SVG Export Plug-In . SVG Version: 6.00 Build 0)  -->
<svg version="1.1" id="Layer_1" xmlns="http://www.w3.org/2000/svg" xmlns:xlink="http://www.w3.org/1999/xlink" x="0px" y="0px"
	 viewBox="156 -156 512 512" style="enable-background:new 156 -156 512 512;" xml:space="preserve">
<style type="text/css">
	.st0{fill:none;stroke:#000002;stroke-width:13;stroke-linejoin:round;stroke-miterlimit:10;}
</style>
<path class="st0" d="M584,44c0,0,46-14.7,58,0s10,30,0.7,28c-9.3-2-32,16-14,38.7s-26.7,26-26.7,26l-24.7-12c0,0,2.7,18.7-6.7,20.7
	c-9.3,2-28.7-47.3-48.7-31.3s-11.3,44.7-11.3,44.7l-18-0.7l-6,12.7c0,0,2,18.7-12.7,18.7s-22.7-8.7-24.7-9.3s-46-6.7-64.7,50
	l-8.7,16.7c0,0-19.3-8.7-18.7-2.7c0.7,6-3.3,22-3.3,22l-48.7,4l-7.3-28l-13.3,10.7L266,227.3l29.3-16.7l-11.3-38l16.7-6l-16.7-52
	l13.3-2.7L278,94l-20.7,28l-30.7-31.3l11.3-26c0,0-40.3,11.6-49.3,20.7c-8.7,8.7-24-10-23.3-22.7c0.7-12.7,29.3-35.3,40-32
	c10.7,3.3,5.3-15.3,5.3-15.3L249.3-10L246-26l20.7,12.7l46.7-29.3l-24-14.7l6.7-43.3l11.3-4.7l9.3,22c0,0,11.3-4,11.3-2
	s2,22.7,2,22.7l12-16.7c0,0,45.3,19,46,25s3,19.7,3,19.7l19-20.7l8.3,12.7l-14.3,27l25.7-11.7l4.7,10L424,6l24.3-9.7
	c0,0,25.7,39,23.7,41.7s-11.3,16-11.3,16l14,22l32,9.3L544,60l-2-14l10.7-11.3c0,0,7.3,28,16.7,24C578.7,54.7,584,44,584,44z"/>
</svg>
