<?xml version="1.0" encoding="iso-8859-1"?>
<!-- Generator: Adobe Illustrator 19.0.0, SVG Export Plug-In . SVG Version: 6.00 Build 0)  -->
<svg version="1.1" id="Layer_1" xmlns="http://www.w3.org/2000/svg" xmlns:xlink="http://www.w3.org/1999/xlink" x="0px" y="0px"
	 viewBox="0 0 511.992 511.992" style="enable-background:new 0 0 511.992 511.992;" xml:space="preserve">
<g>
	<g>
		<path d="M493.096,89.173h-22.208v16h22.216c1.6,0,2.896,1.296,2.896,2.896V412.09c0,1.592-1.296,2.888-2.896,2.888H283.404
			c-3.576,0-6.72,2.376-7.696,5.816c-2.512,8.848-10.608,15.016-19.704,15.016c-9.096,0-17.2-6.176-19.712-15.016
			c-0.976-3.44-4.12-5.816-7.696-5.816H18.896c-1.6,0-2.896-1.296-2.896-2.888V108.07c0-1.592,1.296-2.888,2.896-2.888h22.224v-16
			H18.896C8.48,89.181,0,97.654,0,108.07v304.029c0,10.408,8.48,18.888,18.896,18.888h204.211c6,12.52,18.776,20.832,32.897,20.832
			c14.12,0,26.888-8.312,32.888-20.84h204.203c10.416,0,18.896-8.472,18.896-18.888V108.07
			C511.992,97.654,503.52,89.173,493.096,89.173z"/>
	</g>
</g>
<g>
	<g>
		<path d="M470.887,60.181H280.908c-18.144,0-32.905,15.368-32.905,34.265v320.437c0,4.424,3.944,8,8.36,8
			c4,0,7.384-2.952,7.928-6.92c1.208-8.88,8.352-15.584,16.616-15.584h189.979c4.424,0,8-3.576,8-8V68.181
			C478.888,63.765,475.311,60.181,470.887,60.181z M462.887,384.37H280.908c-6.12,0-11.928,1.8-16.904,4.952V94.437
			c0-10.072,7.584-18.264,16.904-18.264h181.979V384.37z"/>
	</g>
</g>
<g>
	<g>
		<path d="M231.1,60.173H41.121c-4.416,0-8,3.584-8,8v324.205c0,4.424,3.584,8,8,8H231.1c8.256,0,15.4,6.704,16.616,15.592
			c0.544,3.96,4.288,6.912,8.288,6.912c4.424,0,8-3.576,8-8V94.437C264.004,75.541,249.244,60.173,231.1,60.173z M248.004,389.33
			c-4.976-3.144-10.776-4.952-16.904-4.952H49.121V76.181H231.1c9.32,0,16.904,8.192,16.904,18.264V389.33z"/>
	</g>
</g>
<g>
	<g>
		<rect x="282.724" y="114.622" width="161.443" height="16"/>
	</g>
</g>
<g>
	<g>
		<rect x="282.724" y="157.886" width="161.443" height="16"/>
	</g>
</g>
<g>
	<g>
		<rect x="282.724" y="201.199" width="161.443" height="16"/>
	</g>
</g>
<g>
	<g>
		<rect x="282.724" y="244.456" width="161.443" height="16"/>
	</g>
</g>
<g>
	<g>
		<rect x="282.724" y="287.736" width="161.443" height="16"/>
	</g>
</g>
<g>
	<g>
		<rect x="282.724" y="331.041" width="161.443" height="16"/>
	</g>
</g>
<g>
	<g>
		<rect x="67.841" y="114.622" width="161.443" height="16"/>
	</g>
</g>
<g>
	<g>
		<rect x="67.841" y="157.886" width="161.443" height="16"/>
	</g>
</g>
<g>
	<g>
		<rect x="67.841" y="201.199" width="161.443" height="16"/>
	</g>
</g>
<g>
	<g>
		<rect x="67.841" y="244.456" width="161.443" height="16"/>
	</g>
</g>
<g>
	<g>
		<rect x="67.841" y="287.736" width="161.443" height="16"/>
	</g>
</g>
<g>
	<g>
		<rect x="67.841" y="331.041" width="161.443" height="16"/>
	</g>
</g>
<g>
</g>
<g>
</g>
<g>
</g>
<g>
</g>
<g>
</g>
<g>
</g>
<g>
</g>
<g>
</g>
<g>
</g>
<g>
</g>
<g>
</g>
<g>
</g>
<g>
</g>
<g>
</g>
<g>
</g>
</svg>
